/* XPM */
static char *_2213_9796cd9afaa798a12f1799f8d1dc51fc21efb24d586efb6f755816049906a580[] = {
/* columns rows colors chars-per-pixel */
"48 48 142 2 ",
"   c #1C1D1B",
".  c #221D1B",
"X  c #2A1F1D",
"o  c #1F201F",
"O  c #21201D",
"+  c #2E231B",
"@  c #34211F",
"#  c #332919",
"$  c #1E2122",
"%  c #1D252A",
"&  c #1D292F",
"*  c #1D2F39",
"=  c #1D2A31",
"-  c #1D313D",
";  c #232424",
":  c #2A2220",
">  c #262827",
",  c #25292A",
"<  c #2A2D2C",
"1  c #272D30",
"2  c #282F32",
"3  c #2B3134",
"4  c #2D363A",
"5  c #2F393F",
"6  c #323535",
"7  c #303638",
"8  c #353A3B",
"9  c #393E3E",
"0  c #563C17",
"q  c #412321",
"w  c #4B2522",
"e  c #532624",
"r  c #6D2B29",
"t  c #732C2A",
"y  c #7C2E2B",
"u  c #7E5214",
"i  c #1E3645",
"p  c #1E394B",
"a  c #1E3E52",
"s  c #2F3A40",
"d  c #333E44",
"f  c #1E4157",
"g  c #1E435B",
"h  c #3D4243",
"j  c #35434C",
"k  c #3E4548",
"l  c #384751",
"z  c #394A53",
"x  c #3C4E59",
"c  c #3F515E",
"v  c #1E4762",
"b  c #1F4863",
"n  c #414748",
"m  c #43494B",
"M  c #474E50",
"N  c #4B5355",
"B  c #47555D",
"V  c #4E5658",
"C  c #535C5F",
"Z  c #415563",
"A  c #435967",
"S  c #465D6C",
"D  c #555E61",
"F  c #475F70",
"G  c #566063",
"H  c #5C666A",
"J  c #5F6A6E",
"K  c #4A6374",
"L  c #4C677A",
"P  c #4E697C",
"I  c #626D72",
"U  c #667176",
"Y  c #69767B",
"T  c #6B787D",
"R  c #832F2C",
"E  c #95322F",
"W  c #9D3431",
"Q  c #AD3634",
"!  c #B23735",
"~  c #B73835",
"^  c #B93836",
"/  c #C43A38",
"(  c #DC3F3C",
")  c #825414",
"_  c #E6413E",
"`  c #526F84",
"'  c #537187",
"]  c #55748A",
"[  c #57788E",
"{  c #58798F",
"}  c #5B7D95",
"|  c #6E7C81",
" . c #707E83",
".. c #5E829C",
"X. c #738086",
"o. c #758389",
"O. c #79888F",
"+. c #7D8D94",
"@. c #6186A1",
"#. c #6288A3",
"$. c #668EAB",
"%. c #6791AE",
"&. c #6A95B3",
"*. c #6C98B7",
"=. c #6D9ABA",
"-. c #709EBF",
";. c #72A2C5",
":. c #74A5C8",
">. c #79ADD2",
",. c #7BB0D7",
"<. c #7EB4DC",
"1. c #809097",
"2. c #83939A",
"3. c #8799A0",
"4. c #8B9DA5",
"5. c #8D9FA8",
"6. c #8FA2AA",
"7. c #91A4AD",
"8. c #96A9B3",
"9. c #99ADB6",
"0. c #9CB1BA",
"q. c #80B7DF",
"w. c #A1B6C0",
"e. c #A5BAC5",
"r. c #A7BDC8",
"t. c #A8BEC9",
"y. c #82BBE4",
"u. c #84BEE8",
"i. c #ABC2CD",
"p. c #AFC6D2",
"a. c #B2CAD5",
"s. c #B5CDD9",
"d. c #B7D0DC",
"f. c #B9D3DF",
"g. c #BBD4E1",
"h. c #BFD9E5",
"j. c #C0DAE7",
"k. c #C2DCEA",
"l. c #C5E1EE",
"z. c #C7E2F0",
"x. c #CAE6F4",
"c. c None",
/* pixels */
"c.c.c.c.c.c.c.c.c.c.c.c.c.c.c.c.c.c.c.c.c.c.c.c.c.c.c.c.c.c.c.c.c.c.c.c.c.c.c.c.c.c.c.c.c.c.c.c.",
"c.c.c.c.c.c.c.c.c.c.c.c.c.c.c.c.c.c.c.c.c.c.c.c.c.c.c.c.c.c.c.c.c.c.c.c.c.c.c.c.c.c.c.c.c.c.c.c.",
"c.c.c.c.c.c.c.c.c.c.c.c.c.c.c.c.c.c.c.c.c.c.c.c.c.c.            c.c.c.c.c.c.c.c.c.c.c.c.c.c.c.c.",
"c.c.c.c.c.c.c.c.c.c.c.c.c.c.c.c.c.c.c.c.c.c.c.c.c.    s S L x ,     c.c.c.c.c.c.c.c.c.c.c.c.c.c.",
"c.c.c.c.c.c.c.c.c.c.c.c.c.c.c.c.c.  c.c.c.c.c.c.  4 &.u.u.u.u.y...3   c.c.c.c.c.c.c.c.c.c.c.c.c.",
"c.c.c.c.c.c.c.c.c.c.c.c.c.c.c.c.    c.c.c.c.c.  5 >.] <.u.u.u.u.u.y.K   c.c.c.c.c.c.c.c.c.c.c.c.",
"c.c.c.c.c.c.c.c.c.c.c.c.c.c.c.c.  c.c.c.c.c.    -.A   , [ y.u.u.u.u.u.Z   c.c.c.c.c.c.c.c.c.c.c.",
"c.c.c.c.c.c.c.    c.c.c.c.c.c.c.  c.c.c.c.c.  l =.  & *   1 ] >.u.u.u.;.  c.c.c.c.c.c.c.c.c.c.c.",
"c.c.c.c.c.    5 5     c.c.c.c.  c.c.c.c.c.c.  ' Z   f b g -   $ z @.<.u., c.c.c.c.c.c.c.c.c.c.c.",
"c.c.c.c.c.  ..u.u.}     c.c.c.  c.c.c.c.c.c.  #., $ b b b g g i %   , $.4 c.c.c.c.c.c.c.c.c.c.c.",
"c.c.c.c.    %.u.u.u.S   c.c.c.        c.c.c.  ..  & b g p p % b b p   } , c.c.c.c.c.c.c.c.c.c.c.",
"c.c.c.c.c.  d u.u.<.c     c.c.  0 # ) q @     } $ $ b g   a - g b i   $.  c.c.c.c.c.c.c.c.c.c.c.",
"c.c.c.c.c.c.  } &.d 8.7.>       ) + ) Q _ E . Z Z   * b p = b b f $ j L   c.c.c.c.c.c.c.c.c.c.c.",
"c.c.c.c.c.c.  ; n d.x.x.a.G O       O r t r @ o *.4   % p g g p $ ; @.$ c.c.c.c.c.c.c.c.c.c.c.c.",
"c.c.c.c.c.c.c.  m x.x.x.x.x.j.7.U n >     o >   3 &.S $         d @.3   c.c.c.c.c.c.c.c.c.c.c.c.",
"c.c.c.c.c.c.c.c.  2.x.x.x.x.x.x.x.x.x.l.x.x.x.Y   $ K %.@.{ ..%.] ;   c.c.c.c.c.c.c.c.c.c.c.c.c.",
"c.c.c.c.c.c.c.c.  O w.x.x.x.x.x.x.x.x.x.x.x.x.x.4.n     . , ;     c.c.c.c.c.c.c.c.c.c.c.c.c.c.c.",
"c.c.c.c.c.c.c.c.c.  . 3 6 G 2.g.x.x.x.z. .e.x.x.x.x.d.7. .J       c.c.c.c.c.c.c.c.c.c.c.c.c.c.c.",
"c.c.c.c.c.c.c.c.c.c.c.c.c.    O 1.x.x.6.w @ M 9.x.x.x.x.x.x.V . Q X c.c.c.c.c.c.c.c.c.c.c.c.c.c.",
"c.c.c.c.c.c.c.c.c.c.c.c.c.c.c.  1.x.x.h / _ Q e n 0.x.x.x.x.e.  q X c.c.c.c.c.c.c.c.c.c.c.c.c.c.",
"c.c.c.c.c.c.c.c.c.c.c.c.c.c.  , j.x.9.w _ _ _ ~ R e D h.x.x.x.C   c.c.c.c.c.c.c.c.c.c.c.c.c.c.c.",
"c.c.c.c.c.c.c.c.c.c.c.c.c.c.  +.x.x.D Q _ _ _ @   / q e.x.x.x.s.>   c.c.c.c.c.c.c.c.c.c.c.c.c.c.",
"c.c.c.c.c.c.c.c.c.c.c.c.c.  9 z.x.f.+ ( _ _ _ W R ! h x.x.x.x.x.r.h     c.c.c.c.c.c.c.c.c.c.c.c.",
"c.c.c.c.c.c.c.c.c.c.c.c.c.  8.x.x.7.+ ! _ _ y @ ( e 3.x.x.x.x.x.x.x.7.h       c.c.c.c.c.c.c.c.c.",
"c.c.c.c.c.c.c.c.c.c.c.c.  N x.x.x.x.1.> e ^ Q t ! 6 k.x.x.7.I z.x.x.x.x.8.8         c.c.c.c.c.c.",
"c.c.c.c.c.c.c.c.c.c.c.c.  r.x.x.x.x.x.j. .> w Q w 2.x.x.s.;    .x.x.x.x.x.m ' L 2     c.c.c.c.c.",
"c.c.c.c.c.c.c.c.c.c.c.  H x.x.x.x.x.x.x.x.k.1.n M z.j.x.M     . +.j.x.x.p.3 u.u.u.}   c.c.c.c.c.",
"c.c.c.c.c.c.c.c.c.c.c.; s.x.x.x.x.x.x.x.x.x.x.x.s.s.Y 1.    c.    > I e.o.K u.u.u.u.$   c.c.c.c.",
"c.c.c.c.c.c.c.c.c.c.  Y x.x.x.x.x.x.x.x.x.x.x.e.9 i.a.>   c.c.c.c.      o P u.u.u.>.    c.c.c.c.",
"c.c.c.c.c.c.c.c.c.    I i.x.x.x.x.x.x.x.x.l.0.9 +.8.U   c.c.c.c.c.c.c.c.    d @.<.S   c.c.c.c.c.",
"c.c.c.c.c.c.c.c.c.  ` &.< D f.x.U n  .i.x.h.6 5.H j.>   c.c.c.c.c.c.c.c.c.            c.c.c.c.c.",
"c.c.c.c.c.c.c.c.  , q.u.>.} 7 T         5.x.0.V k.+.  c.c.c.c.c.c.c.c.c.c.c.c.c.  c.c.c.c.c.c.c.",
"c.c.c.c.c.c.c.c.  ] &.u.L &.>.    c.    e.x.x.p.x.6   c.c.c.c.c.c.c.c.c.c.c.c.c.c.c.c.c.c.c.c.c.",
"c.c.c.c.c.c.c.  > q.@.Z >.u...  c.c.  ; 8.k.x.x.7.  c.c.c.c.c.c.c.c.c.c.c.c.c.c.c.c.c.c.c.c.c.c.",
"c.c.c.c.c.c.c.  N B <.>.<.u.j   c.c.  L ] d 2.x.9   c.c.c.c.c.c.c.c.c.c.c.c.c.c.c.c.c.c.c.c.c.c.",
"c.c.c.c.c.c.  8 l.+.K @.<.:.  c.c.  4 y.;.>.j 8   c.c.c.c.c.c.c.c.c.c.c.c.c.c.c.c.c.c.c.c.c.c.c.",
"c.c.c.c.c.    9.x.f.U U z Z   c.c.  @.u.&...u.z   c.c.c.c.c.c.c.c.c.c.c.c.c.c.c.c.c.c.c.c.c.c.c.",
"c.c.c.c.c.  n x.x.x.x.x.o.  c.c.  4 u.Z #.u.>.O c.c.c.c.c.c.c.c.c.c.c.c.c.c.c.c.c.c.c.c.c.c.c.c.",
"c.c.c.c.c.  9 k.x.x.x.x.n   c.c.  7 x S >.u.'   c.c.c.c.c.c.c.c.c.c.c.c.c.c.c.c.c.c.c.c.c.c.c.c.",
"c.c.c.c.c.c.  9 9.x.x.+.  c.c.  6 s.9.Y 5 F ,   c.c.c.c.c.c.c.c.c.c.c.c.c.c.c.c.c.c.c.c.c.c.c.c.",
"c.c.c.c.c.c.c.    h C .   c.c.  O.x.x.x.a.C   c.c.c.c.c.c.c.c.c.c.c.c.c.c.c.c.c.c.c.c.c.c.c.c.c.",
"c.c.c.c.c.c.c.c.        c.c.  o f.x.x.x.k.3   c.c.c.c.c.c.c.c.c.c.c.c.c.c.c.c.c.c.c.c.c.c.c.c.c.",
"c.c.c.c.c.c.c.c.c.c.c.c.c.c.  m x.x.x.x.X.  c.c.c.c.c.c.c.c.c.c.c.c.c.c.c.c.c.c.c.c.c.c.c.c.c.c.",
"c.c.c.c.c.c.c.c.c.c.c.c.c.c.    I i.x.s.;   c.c.c.c.c.c.c.c.c.c.c.c.c.c.c.c.c.c.c.c.c.c.c.c.c.c.",
"c.c.c.c.c.c.c.c.c.c.c.c.c.c.c.      h 9   c.c.c.c.c.c.c.c.c.c.c.c.c.c.c.c.c.c.c.c.c.c.c.c.c.c.c.",
"c.c.c.c.c.c.c.c.c.c.c.c.c.c.c.c.c.c.    c.c.c.c.c.c.c.c.c.c.c.c.c.c.c.c.c.c.c.c.c.c.c.c.c.c.c.c.",
"c.c.c.c.c.c.c.c.c.c.c.c.c.c.c.c.c.c.c.c.c.c.c.c.c.c.c.c.c.c.c.c.c.c.c.c.c.c.c.c.c.c.c.c.c.c.c.c.",
"c.c.c.c.c.c.c.c.c.c.c.c.c.c.c.c.c.c.c.c.c.c.c.c.c.c.c.c.c.c.c.c.c.c.c.c.c.c.c.c.c.c.c.c.c.c.c.c."
};
