/* XPM */
static char *ebfbefed49c542efc8479e979ef06bccwDRK0JNi08MFGtwD[] = {
/* columns rows colors chars-per-pixel */
"48 48 142 2 ",
"   c None",
".  c #512D2F",
"X  c #522F30",
"o  c #5C3436",
"O  c #5F3B3C",
"+  c #623234",
"@  c #663638",
"#  c #69373A",
"$  c #723537",
"%  c #733639",
"&  c #7D3B40",
"*  c #664042",
"=  c #BC121B",
"-  c #B8191C",
";  c #921E25",
":  c #9C1C22",
">  c #A41D24",
",  c #AA1F26",
"<  c #B71E26",
"1  c #BE1B23",
"2  c #9E2028",
"3  c #80393D",
"4  c #99353A",
"5  c #A32025",
"6  c #AD2027",
"7  c #A42128",
"8  c #AD2129",
"9  c #B12127",
"0  c #B42229",
"q  c #BB252C",
"w  c #B7282E",
"e  c #BD282F",
"r  c #BE2930",
"t  c #AE373E",
"y  c #B43339",
"u  c #BB323A",
"i  c #C20E18",
"p  c #CA1015",
"a  c #C4141E",
"s  c #D4121F",
"d  c #C71721",
"f  c #CD1724",
"g  c #C11923",
"h  c #CC1A25",
"j  c #C51F29",
"k  c #CD1F29",
"l  c #D31521",
"z  c #D81724",
"x  c #D61B26",
"c  c #D91B27",
"v  c #D41C29",
"b  c #DC1D2C",
"n  c #C2262E",
"m  c #C9212A",
"M  c #C6282F",
"N  c #C9282F",
"B  c #D4222D",
"V  c #DB212E",
"C  c #C72730",
"Z  c #CA2730",
"A  c #C32A32",
"S  c #CD2A34",
"D  c #CD2F3A",
"F  c #D32632",
"G  c #DF2533",
"H  c #D22C36",
"J  c #DB2B36",
"K  c #D42E38",
"L  c #DA2E39",
"P  c #CD323B",
"I  c #D5313B",
"U  c #DD313B",
"Y  c #DA323D",
"T  c #DC333D",
"R  c #DE323D",
"E  c #DF343F",
"W  c #DA313B",
"Q  c #E12531",
"!  c #E32B36",
"~  c #E92B36",
"^  c #E22939",
"/  c #E12C3B",
"(  c #EB2D39",
")  c #F12D39",
"_  c #E1313C",
"`  c #E7323D",
"'  c #EC303B",
"]  c #8D3A40",
"[  c #AB3C43",
"{  c #BF3740",
"}  c #C23841",
"|  c #CE3840",
" . c #DF3645",
".. c #DB3640",
"X. c #D13E46",
"o. c #DF3946",
"O. c #D43D49",
"+. c #DF3D4A",
"@. c #E33742",
"#. c #E13540",
"$. c #E53440",
"%. c #E23843",
"&. c #E53A46",
"*. c #E43D4C",
"=. c #B75058",
"-. c #CE414A",
";. c #D2424C",
":. c #DA444F",
">. c #D8414C",
",. c #CD4B54",
"<. c #D24651",
"1. c #DC4551",
"2. c #D34F57",
"3. c #D24852",
"4. c #D5565E",
"5. c #D2545D",
"6. c #E4434F",
"7. c #E4515E",
"8. c #DC5762",
"9. c #DF5A64",
"0. c #DE5A66",
"q. c #E25763",
"w. c #E85E6B",
"e. c #C66366",
"r. c #D26269",
"t. c #DD666F",
"y. c #DF606B",
"u. c #C66E73",
"i. c #DD6B73",
"p. c #DB6F76",
"a. c #DC6E76",
"s. c #D87078",
"d. c #E76D76",
"f. c #E86F7B",
"g. c #E0727B",
"h. c #E17B85",
"j. c #E37981",
"k. c #E18288",
"l. c #EA818C",
"z. c #E58A93",
"x. c #E98F97",
"c. c #CFA7A6",
/* pixels */
"                                                                                                ",
"                                                                                                ",
"                                                                                                ",
"                                                    n j                                         ",
"                                          x.f.7.6.L V V L 0.k.                                  ",
"                                    t.q.*.^ G G Q U &.&.$.Q c B :.d.                            ",
"                                0.%./ ^ J L I L Y U U _ E %.@.L h B 6.l.                        ",
"                            p.J V L L K K H H H H K K L U W U @.U Z v b w.                      ",
"                          8.x B I P H S Z H N S S H H C S K K L L K D L z o.                    ",
"                        a.l S S N C C Z N N N N N S F w w H H H K K A D K s *.                  ",
"                        h m A M n q M n M M n m N N N Z Z Z S S S K C A Y K l 1.                ",
"                      H d A n e q q q q q n n n N M n M C M C C S S S C L Y K l g.              ",
"                      a M n q q q q 0 q q q q n n n n n q n n A C Z Z A S K ..v O.              ",
"                    p.a A q q 0 0 w 9 0 < q q q q q q n q n q q q n n 0 q Z D F F               ",
"                    4.a A q q 0 0 9 9 0 q q 9 q q q q < q q q q q q q 0 < A S S v               ",
"                    5.a r w 0 0 9 6 9 9 9 9 q 9 < q q q q q 0 q 0 q 0 , q q r D h h.            ",
"                    -.a q q 9 9 6 > 6 9 6 9 9 9 9 q q 9 q 9 q 0 0 0 0 , 0 r r r a 8.            ",
"                    P g e 0 6 , , > , 6 < , 6 6 6 9 9 q < 9 9 9 , 8 , > 0 0 0 r = O.            ",
"                    N - q 6 6 > > > > , 9 9 6 6 6 9 9 9 0 9 9 < , , > : 8 0 w r = 3.            ",
"                    m 0 0 6 5 > > : : > 9 9 0 9 9 0 q q 0 0 6 , , > : : , , 0 r = 3.            ",
"                    n 9 6 6 5 > > > : : > 6 9 9 0 0 0 0 q 0 9 6 , > ; : , 0 w r = <.            ",
"                    a 9 6 6 > > > > > : > , 6 6 , 6 , , , 0 0 , , , : , 0 0 q r = ,.            ",
"                    a w 6 5 > 6 < 9 > : : > , 6 9 , > > , 7 6 , , > : , 0 0 q q k =.            ",
"                  s.= 0 6 > > 2 > 9 9 > > > > 6 6 , , , , , , , , > : 8 8 0 q 0 S ]             ",
"                  r.= n q n q 8 7 , 0 0 0 , , , 9 6 , , , 8 , , 6 , , 8 8 w w , S %             ",
"                  ;.m K K W J J K J H S S A 0 , 6 0 0 6 , , 0 0 0 0 0 0 , q q < S #             ",
"                >.x K K K K H H K K J H K K S A w 8 : : > > 8 8 8 5 6 , q A D Z D X             ",
"              y.l H K K H K H H K F H J K F J K L H D A r w w 8 8 ; ; q [ & o o .               ",
"            j.l H I P K H K H H J K H H K H F H H H H L K K K K H D J ` @                       ",
"          z.x K I W K K K H H H S H H K H S D H S H S S D S H F H H ) [                         ",
"          l x B B F J K H H H H H F H H H H S H H H S H D F D H H ! ..                          ",
"        p a A -.| C B V ^ L H H S H H S H D F D H H H H H D F D K ` &                           ",
"      - e.            u.u J ~ J H S H S H H H D S S H H H H S H ~ [                             ",
"    y c.                  @ y ! ! K S H S H H S H H D H H D D ~ |                               ",
"                              @ y ! ! K D S S H H H H S S S ~ ..                                ",
"                                  $ u ! ! J H S S H S S J ~ ..O                                 ",
"                                      $ u U ~ ! J J L ! ( {                                     ",
"                                          o 4 u I K Y { 3                                       ",
"                                                  X                                             ",
"                                                                                                ",
"                                                                                                ",
"                                                                                                ",
"                                                                                                ",
"                                                                                                ",
"                                                                                                ",
"                                                                                                ",
"                                                                                                ",
"                                                                                                "
};
