/* XPM */
static char *_aab9238f71340ce9f7ee62d6fc797b2Ap6DUNszSr2c3AVI[] = {
/* columns rows colors chars-per-pixel */
"48 48 183 2 ",
"   c None",
".  c #000000",
"X  c #0A0604",
"o  c #060B05",
"O  c #0C0906",
"+  c #0C0B0A",
"@  c #110A07",
"#  c #140C09",
"$  c #190E0A",
"%  c #07170A",
"&  c #0D140A",
"*  c #06190A",
"=  c #0A1C0D",
"-  c #041307",
";  c #14100A",
":  c #1E100C",
">  c #0C1F11",
",  c #141313",
"<  c #1F1816",
"1  c #1B1B1B",
"2  c #23130E",
"3  c #2A1611",
"4  c #2E1913",
"5  c #261510",
"6  c #331C15",
"7  c #3A1F17",
"8  c #0C2511",
"9  c #0B2A12",
"0  c #112F18",
"q  c #0B3214",
"w  c #0C3A17",
"e  c #133A1B",
"r  c #15341D",
"t  c #2F221E",
"y  c #3A2017",
"u  c #3D221A",
"i  c #163D20",
"p  c #202020",
"a  c #2C2C2C",
"s  c #3D2720",
"d  c #3E2821",
"f  c #3D2F2A",
"g  c #343434",
"h  c #3B3B3B",
"j  c #44251C",
"k  c #4B291E",
"l  c #48271D",
"z  c #422B23",
"x  c #4C2C22",
"c  c #532E22",
"v  c #4D342D",
"b  c #553126",
"n  c #5B3225",
"m  c #55342A",
"M  c #5B3529",
"N  c #57382E",
"B  c #5E3A2F",
"V  c #453631",
"C  c #553A34",
"Z  c #5B3D33",
"A  c #533F38",
"S  c #5E3F39",
"D  c #623628",
"F  c #64392C",
"G  c #693B2C",
"H  c #623E33",
"J  c #693F31",
"K  c #104A1E",
"L  c #164C21",
"P  c #1C4828",
"I  c #1A4725",
"U  c #125321",
"Y  c #185022",
"T  c #155B25",
"R  c #1E562C",
"E  c #205F31",
"W  c #176429",
"Q  c #1A642B",
"!  c #176A2A",
"~  c #156126",
"^  c #1A742F",
"/  c #1B7B32",
"(  c #21632F",
")  c #276A37",
"_  c #267C36",
"`  c #237036",
"'  c #664135",
"]  c #6A4336",
"[  c #65453B",
"{  c #6D4639",
"}  c #6E493D",
"|  c #724436",
" . c #71473A",
".. c #734A3D",
"X. c #794D3F",
"o. c #464646",
"O. c #4F4F4F",
"+. c #565656",
"@. c #5D5D5D",
"#. c #754E41",
"$. c #7A4F40",
"%. c #695047",
"&. c #6D554C",
"*. c #765044",
"=. c #7C5244",
"-. c #7D554A",
";. c #7C594F",
":. c #7F5A50",
">. c #656565",
",. c #747474",
"<. c #7A7A7A",
"1. c #835445",
"2. c #885747",
"3. c #895847",
"4. c #815648",
"5. c #885748",
"6. c #85594C",
"7. c #8B5B4B",
"8. c #925E4D",
"9. c #835D53",
"0. c #8C5F50",
"q. c #96604F",
"w. c #836055",
"e. c #8E6051",
"r. c #8B695C",
"t. c #946354",
"y. c #986756",
"u. c #996857",
"i. c #9C6959",
"p. c #916358",
"a. c #9E7565",
"s. c #9A796D",
"d. c #A27B6C",
"f. c #2A873C",
"g. c #208939",
"h. c #2C883E",
"j. c #218439",
"k. c #25923E",
"l. c #2C913F",
"z. c #2E8A42",
"x. c #308B43",
"c. c #378E4E",
"v. c #279341",
"b. c #2C9642",
"n. c #2E9D46",
"m. c #309D47",
"M. c #32964A",
"N. c #3A9E52",
"B. c #2FA24A",
"V. c #27A145",
"C. c #31A147",
"Z. c #32A44B",
"A. c #34AA4E",
"S. c #36B04F",
"D. c #37A452",
"F. c #36AA51",
"G. c #39AD55",
"H. c #39B254",
"J. c #3BBB55",
"K. c #3CB25B",
"L. c #3CB15A",
"P. c #3DB658",
"I. c #3EB55C",
"U. c #3BB159",
"Y. c #3EBB5A",
"T. c #41B45F",
"R. c #40BB5D",
"E. c #43BE61",
"W. c #46BF65",
"Q. c #45B262",
"!. c #3DC456",
"~. c #3BC254",
"^. c #3EC558",
"/. c #3EC258",
"(. c #41C65C",
"). c #40C35B",
"_. c #848484",
"`. c #8D8D8D",
"'. c #949494",
"]. c gray60",
"[. c #A5A5A5",
"{. c gray67",
"}. c #B4B4B4",
/* pixels */
"  . . . . . . . . . . . . . . . . . . . . . . . . . . . . . . . . . . . . . . . . . . . . . .   ",
". . e Q f.f.f.f.f.h.h.h.h.z.z.z.z.z.x.z.z.z.x.x.x.x.z.x.z.x.z.z.z.z.z.h.h.h.f.f.f.f.f._ K . . . ",
". Y ~.!.!.!.^.^.).).(.(.(.).).Y.R.P.P.P.P.P.P.P.U.U.H.U.G.G.U.H.H.F.H.S.A.A.Z.Z.B.B.Z.Z.A.n.* . ",
". b.!.!.!.^./.J.H.F.F.Z.Z.A.A.D.A.F.A.F.F.F.F.F.F.F.A.F.A.F.A.A.A.D.Z.Z.A.Z.Z.Z.Z.C.C.C.n.C._ . ",
". C.!.!.J.A.Z.C.Z.Z.Z.Z.Z.F.A.F.F.F.F.F.F.F.F.F.F.F.F.F.F.F.F.D.F.Z.F.D.Z.Z.Z.Z.Z.C.m.B.m.C.l.. ",
". A.!.S.Z.Z.Z.Z.Z.Z.Z.F.F.Z.F.F.F.F.F.F.F.G.F.G.G.F.G.F.F.F.F.F.F.D.A.Z.F.Z.D.Z.Z.Z.C.Z.Z.n.C.. ",
". A.J.Z.n.Z.Z.Z.Z.A.A.U.D.F.F.F.F.F.G.F.G.G.G.G.G.G.G.F.G.G.G.F.F.F.F.F.D.A.Z.Z.Z.Z.B.n.C.B.C.. ",
". Z.A.C.Z.Z.Z.Z.A.Z.K = D.G.F.F.G.G.G.G.G.G.G.G.G.G.G.G.G.G.F.G.F.F.F.F.F.Z.F.Z.Z.Z.Z.Z.B.m.C.. ",
". A.S.Z.Z.Z.m.Z.A.g.& 2 0 ).G.G.G.z.R L.U.G.U.U.U.G.U.U.G.G.G.G.F.F.G.F.F.F.Z.A.F.Z.Z.Z.Z.m.m.. ",
". h.S.Z.m.T = G.n.U 5 c @ c.G.G.B.w 8 E.U.U.U.U.L.L.U.M.D.U.G.G.F.` F.F.F.F.F.F.n.L b.Z.Z.Z.n.. ",
". 8 J.m.^ o @ ` v.9 l ] 6 e U.B.! + o T.U.U.U.K.L.Z.W X > W.U.U.n.o P R.F.F.F.v.U X ( A.Z.m.b.. ",
". X h.k.% 4 j X ! & c =.b % B.^ o x 2 ) R.U.K.U.A./ & x # c.I.F.U u X N.G.F.k.w @ 7 e H.Z.n.~ . ",
". 5 8 T : M ] 6 . # b -.G ; K o j ] c o Q.I.I.G.k.% k J u P E.j.# n 6 R F.g.9 $ x x 8 G.k.! & . ",
". N # . u ] *.{ l 3 b =.] : : k ] 7.| 3 r T.I.n.q 6 G 7.M + v.* k ] k = T - 2 c  .c = ! q o j . ",
". 9.] 7 c #.*.=.*.] } 6.D n M ..7.7.7.M # E F.! $ D 1.t.| $ o j G 6.D O # u n ]  .c X X 2 j b . ",
". 9.9.#.*.*.=.-.e.:.A f 4 b 1.7.e.0.t.1.c X ! & n | t.t.3.c n ] 6.7.J n D ] .... .c c c b F Z . ",
". 9.9.#.$.*.=.9.C , h O.o.@ $.0.e.e.t.t.$.j . j G 2.t.t.t.1.2.8.7.3.=.=.X.X.......| { { ] [ H . ",
". 9.9.#.*.=.-.r.g {.'._._.a z 8.p.t.t.t.t.X.n G | t.y.t.t.8.7.5.1.1.1.X.1.X.X.X.....{ { } ] Z . ",
". 9.9.#.*.=.=.:.o.'._._._.+.6 p.t.t.t.t.i.i.1.$.y.y.y.8.8.3.2.1.1.1.1.=.X.X.=.X.......{ ] ] H . ",
". 9.6.$.=.-.-.#.h `._._._.O.7 3.7.7.8.t.q.8.8.8.8.8.8.3.7.3.3.5.1.1.1.1.1.X.X.X.......{ { ] H . ",
". w.9...#. .#.{ + g a p + @ J 5.3.3.8.3.8.8.8.8.7.8.8.8.7.3.3.3.3.1.1.1.1.X.X.X.X.....{ { { H . ",
". w.-.{  .....X.] u 6 z M | 1.5.3.3.3.8.8.8.8.8.8.8.8.8.8.8.8.3.3.3.1.1.1.=.1.X.X..... .{ { ' . ",
". 9.-.{  . ...#.$.$.1.$.1.1.3.3.7.3.8.3.8.8.8.8.8.8.8.8.8.7.3.7.3.3.1.1.1.X.=.X.X.......{ { H . ",
". w.-...#.v s B $.$.1.1.1.5.3.3.7.8.8.8.8.8.8.t.8.8.8.8.8.8.7.7.3.3.3.1.1.1.X.=.X.X... . .{ H . ",
". w.-...t a g O  .$.=.1.1.1.3.3.3.8.8.8.8.q.q.q.q.q.q.8.8.8.8.3.3.3.3.1.1.=.=.=.=.=.=.*.#.#.' . ",
". 9.-..., `.<.+ G $.1.1.1.1.3.3.8.7.7.8.8.q.q.q.q.q.q.8.8.8.3.8.6.3.3.6.7.7.6.6.6.4.1.=.*.*.' . ",
". w.-.{ + , , # ] 1.1.1.1.1.2.3.3.8.7.8.8.q.q.q.q.q.q.q.8.8.8.8.e.q.t.q.0.7.7.6.4.4.-.=.=.$.H . ",
". 9.-.} Z u j M $.$.$.$.1.2.2.3.3.3.8.8.8.8.q.q.q.q.8.8.8.8.y.q.u.t.e.e.0.0.6.7.6.4.-.-.*.#.H . ",
". 9.-.} { ......$.$.1.1.1.1.5.5.3.3.8.8.8.8.8.q.q.q.q.i.i.i.y.y.t.t.e.e.0.0.7.6.4.4.-.=.#.#.N . ",
". 9.-.} ......X.$.$.$.1.1.1.5.5.3.8.3.8.8.8.8.q.i.i.i.i.i.y.y.y.t.t.e.e.0.7.6.6.4.4.-.=.-.$.m . ",
". 9.-.] ....X.$.$.$.$.$.1.1.1.5.5.5.8.8.q.y.i.i.i.i.i.i.i.y.y.q.t.e.e.0.7.6.6.6.4.1.=.*.*.#.m . ",
". 9.6.$.*.=.-.4.4.6.0.0.7.7.8.p.q.q.y.y.y.i.i.i.i.i.y.y.y.y.t.t.t.e.e.0.7.0.6.4.4.-.-.=.#.#.c . ",
". 9.6.*.*.*.4.4.4.6.7.7.7.0.e.t.t.t.t.t.y.y.y.y.u.y.y.y.t.t.i.a.a.w.[ A Z [ -.-.-.=.=.*.*.#.x . ",
". 9.9.#.$.*.=.4.4.6.6.6.9.0.0.0.e.t.t.t.t.y.t.y.y.y.y.t.t.i.s.V + . + , + X @ #.1.-.*.#.$.] k . ",
". 9.6.#.#.-.=.*.-.4.6.6.6.0.7.e.0.t.t.t.t.t.y.y.t.t.t.t.t.d.< g >.].[.[.[.[.+.5 ..#.....] H k . ",
". :.9.#.$.=.*.-.-.1.4.6.6.6.7.0.q.9.e.t.t.e.0.7.7.3.3.4.4.r.1 }.{._.<.<.<.<._.@ n { { { ] B k . ",
". :.9...#.#.*.-.=.-.4.4.6.6.0.7.7.e.7.3.1.1.2.1.4.3.1.1.1.&.g }.`.<.<.,.<.,.,., b ] } ] ] M k . ",
". ;.9.#.#.#.$.$.=.-.4.4.6.6.6.6.1.1.-.1.1.1.1.1.1.1.1.1.3.&.o.}.<.<.<.<.,.,.,., c ' ] ' ' b k . ",
". :.9...#.#.#.#.=.=.1.-.4.4.=.=.X.1.X.1.1.1.1.X.=.1.X.1.=.%.h {.<.,.<.,.,.,.,.o c ] { ' ' c l . ",
". -.9...} #.#.#.*.=.=.*.....X.X.X.X.1.X.=.X.=.1.X.1.1.X.X.Z a }.<.<.,.,.,.,.,.o c ' ] ' B k l . ",
". -.9.{ } } } #...} }  .........X.X.X.X.$.$.=.$.$.$.$.$.$.m o '.'.,.,.,.,.,.@.# c ] ' ' m k l . ",
". -.9.H H ' ' ] { { } { } ........X.X.X.X.X.X.$.$.X.X.$.#.} $ . , 1 p 1 o + O j n ] ' ' c k l . ",
". -.9.H H ' ' ' ' { { {  . ...............X.X.X.X...X.X.....{ x 3 4 6 7 7 7 c c F ] ' M k k l . ",
". -.0.Z H H H ' ' ] ] ] ] {  . . ...............X...............{ H J J H J ] } #.} Z k k k l . ",
". -.p.%.Z H H ' ' ' ' { ] ] { } { { ............ ... .....{ ....#.#.#.#.#...#.} ] M k k k l u . ",
". S p.e.-.] ' H ' ' ' ' { ] ] ] { { { { { { { { .. .{ { { ..#.#.$.#.#.#.} ' B c c k k k k l 5 . ",
". X s C C C C C v V V z u d d d d z d z z j z z z z z z z v v z z d u 6 6 4 4 6 4 3 4 3 2 @ . . ",
"  . . . . . . . . . . . . . . . . . . . . . . . . . . . . . . . . . . . . . . . . . . . . . .   "
};
