/* XPM */
static char *_651911542009[] = {
/* columns rows colors chars-per-pixel */
"48 48 222 2 ",
"   c #09061C",
".  c #0C091F",
"X  c #0C0B14",
"o  c #1D1D1D",
"O  c #17191B",
"+  c #0E1014",
"@  c #0D0B21",
"#  c #110E23",
"$  c #1D1D23",
"%  c #15152A",
"&  c #18162C",
"*  c #151A2D",
"=  c #1A1B2C",
"-  c #151325",
";  c #1B1C31",
":  c #151D33",
">  c #0E1024",
",  c #250E25",
"<  c #2C1328",
"1  c #221B2B",
"2  c #291A2C",
"3  c #35192D",
"4  c #211D33",
"5  c #1B222A",
"6  c #1A2135",
"7  c #1C2A39",
"8  c #1C333E",
"9  c #242427",
"0  c #37262F",
"q  c #222A3C",
"w  c #272938",
"e  c #3B2633",
"r  c #372C38",
"t  c #24303D",
"y  c #2B343D",
"u  c #2D3135",
"i  c #39343A",
"p  c #353639",
"a  c #432533",
"s  c #452B37",
"d  c #432D3A",
"f  c #4B2D3A",
"g  c #4C2535",
"h  c #562B36",
"j  c #4A3335",
"k  c #47393D",
"l  c #54393B",
"z  c #6A373B",
"x  c #7A3C3D",
"c  c #75373C",
"v  c #652C33",
"b  c #3B413D",
"n  c #4A443C",
"m  c #54433B",
"M  c #252D43",
"N  c #2B2F43",
"B  c #243245",
"V  c #2B3342",
"C  c #2A3B46",
"Z  c #323243",
"A  c #363948",
"S  c #2B3E52",
"D  c #203E55",
"F  c #3B3E5D",
"G  c #40384A",
"H  c #583F4E",
"J  c #743D44",
"K  c #38454D",
"L  c #294659",
"P  c #334054",
"I  c #3B4651",
"U  c #3A4957",
"Y  c #284C63",
"T  c #265166",
"R  c #29576B",
"E  c #395666",
"W  c #3B5B75",
"Q  c #285C71",
"!  c #3B606A",
"~  c #3F6273",
"^  c #464646",
"/  c #475247",
"(  c #454657",
")  c #514F58",
"_  c #455058",
"`  c #4C545F",
"'  c #53565D",
"]  c #5C4B4F",
"[  c #785957",
"{  c #65514D",
"}  c #5C6650",
"|  c #606252",
" . c #464A66",
".. c #544E64",
"X. c #48586A",
"o. c #555D65",
"O. c #545B6B",
"+. c #595964",
"@. c #555B72",
"#. c #6B5D73",
"$. c #605764",
"%. c #496269",
"&. c #57676C",
"*. c #48667A",
"=. c #566C79",
"-. c #586578",
";. c #58707C",
":. c #6A666B",
">. c #726B67",
",. c #676B78",
"<. c #736B72",
"1. c #777378",
"2. c #69747F",
"3. c #8B2F35",
"4. c #84383B",
"5. c #973235",
"6. c #84463C",
"7. c #9A4A3B",
"8. c #944A46",
"9. c #9A5858",
"0. c #8B4E52",
"q. c #977050",
"w. c #845865",
"e. c #836468",
"r. c #837677",
"t. c #887663",
"y. c #A66B68",
"u. c #D48C3B",
"i. c #E79526",
"p. c #908168",
"a. c #E4A958",
"s. c #EDB352",
"d. c #CC9D6D",
"f. c #E3B36E",
"g. c #4A5582",
"h. c #446683",
"j. c #5B7489",
"k. c #58748A",
"l. c #636385",
"z. c #6C7B8C",
"x. c #667D8C",
"c. c #767A86",
"v. c #697A95",
"b. c #727E94",
"n. c #897B89",
"m. c #6F8287",
"M. c #6D849B",
"N. c #658198",
"B. c #73859C",
"V. c #798699",
"C. c #6B86A3",
"Z. c #7A8CA3",
"A. c #798CA5",
"S. c #7592B9",
"D. c #7996BD",
"F. c #738CB1",
"G. c #7B9EC1",
"H. c #898689",
"J. c #97888B",
"K. c #98918D",
"L. c #848C9D",
"P. c #898A99",
"I. c #918E9A",
"U. c #948B97",
"Y. c #98939B",
"T. c #A4959B",
"R. c #AC999D",
"E. c #A79998",
"W. c #B29C9C",
"Q. c #9CA096",
"!. c #A8A49C",
"~. c #BBA080",
"^. c #888BA6",
"/. c #8392AD",
"(. c #8795A7",
"). c #9997A3",
"_. c #8E98B4",
"`. c #929BB6",
"'. c #979FBA",
"]. c #A197A1",
"[. c #AB9BA3",
"{. c #B49DA2",
"}. c #BB9FA1",
"|. c #9AA4BB",
" X c #8BA1B8",
".X c #A9A8A7",
"XX c #BAA4A6",
"oX c #B7B2AD",
"OX c #A5A7B9",
"+X c #B3B3B6",
"@X c #ADB1BC",
"#X c #CA9C83",
"$X c #DFB78C",
"%X c #C7ABAB",
"&X c #CDB8AD",
"*X c #CAB7B7",
"=X c #D5B9B9",
"-X c #ECCA9E",
";X c #EAC58C",
":X c #D9C7B2",
">X c #E5D5BD",
",X c #8AA5C6",
"<X c #9CAEC9",
"1X c #A7AAC3",
"2X c #A3B8CC",
"3X c #B3BCC9",
"4X c #B3BDD1",
"5X c #BDC8D5",
"6X c #DEC6C6",
"7X c #DDD0C7",
"8X c #C4C9D5",
"9X c #C7D2DC",
"0X c #CFC7C8",
"qX c #E1CBCC",
"wX c #EADBCB",
"eX c #E4D7D2",
"rX c #EFE2D4",
"tX c #C3D5E0",
"yX c #DCE6EE",
"uX c #DCE9F0",
"iX c #F7F5EE",
"pX c None",
/* pixels */
"pXpXpXpXpXpXpXpXpXpXpXpXpXpXpXpXpXpXpXpXpXpXpXpXpXpXpXpXpXpXpXpXpXpXpXpXpXpXpXpXpXpXpXpXpXpXpXpX",
"pXpXpXpXpXpXpXpXpXpXpXpXpXpXpXpXpXpXpXpXpXpXpXpXpXpXpXpXpXpXpXpXpXX.z.l... .F  .pXpXpXpXpXpXpXpX",
"pXpXpXpXpXpXpXpXpXpXpXpXpXpXpXpXpXpXpXpXpXpXpXpXpXpXpXpXpXpXpXI.1.t = & & @ # pXpXpXpXpXpXpXpXpX",
"pXpXpXpXpXpXpXpXpXpXpXpXpXpXpXpXpXpXpXpXpXpXpXpXpXpXpXpXpXpXQ.p.^ / b # # M pXpXpXpXpXpXpXpXpXpX",
"pXpXpXpXpXpXpXpXpXpXpXpXpXpXpXpXpXpXpXpXpXpXpXpXpXpXpXpXpX!.>.k ^ / u 1 A pXpXpXpXpXpXpXpXpXpXpX",
"pXpXpXpXpXpXpXpXpXpXpXpXpXpXpXpXpXpXpXpXpXpXpXpXpXpXpXpXoX_ A p i r r 1 pXpXpXpXpXpXpXpXpXpXpXpX",
"pXpXpXpXpXpXpXpXpXpXpXpXpXpXpXpXpXpXpXpXpXpXpXpXpXpXY.E.^ e A i i p 1 & G pXpXpXpXpXpXpXpXpXpXpX",
"pXpXpXpXpXpXpXpXpXpXpXpXpXpXpXpXpXpXpXpXpXpXpXpXpXQ.K.f g s A r r 9 & , 2 b.v.pXpXpXpXpXpXpXpXpX",
"pXpXpXpXpXpXpXpXpXpXpXpXpXpXpXpXpXpXpXpXpXpXpXpX!.r.s e e d Z H r r 2 , ( S.S.S.F.b.pXpXpXpXpXpX",
"pXpXpXpXpXpXpXpXpXpXpXpXpXpXpXpXpXpXpXpXpXpXpXXX:.f f s a e s ..m < , , C.S.S.D.,X4XpXpXpXpXpXpX",
"pXpXpXpXpXpXpXpXpXpXpXpXpXpXpXpXpXpXpXpXpXpX!.] l l l l j j 0 N Z 3 < G G.S.G.<X8XOXpXpXpXpXpXpX",
"pXpXpXpXpXpXpXpXpXpXpXpXpXpXpXpXpXpXpXpXH.!.d 0 j 0 0 e 3 e d e ..3 3 F.G.G.4X8XpXpXpXpXpXpXpXpX",
"pXpXpXpXpXpXpXpXpXpXpXpXpXpXpXpXpXpXpX.XE.z m j a a g g g h g s #.g ..,X2X8X8XpXpXpXpXpXpXpXpXpX",
"pXpXpXpXpXpXpXpXpXpXpXpXpXpXpXpXpXpXoXH.f g h z x x 4.J c x z c { #.'.8X9XpXpXpXpXpXpXpXpXpXpXpX",
"pXpXpXpXpXpXpXpXpXpXpXpXpXpXpXpXpXoXe.z c c { x 6.x 4.4.c 4.4.7.6.(.9X+XpXpXpXpXpXpXpXpXpXpXpXpX",
"pXpXpXpXpXpXpXpXpXpXpXpXpXpXpXpX1XOXn.P.U.P.n.e.8.7.7.7.x 4.v [ +X|.pXpXpXpXpXpXpXpXpXpXpXpXpXpX",
"pXpXpXpXpXpXpXpXpXpXpXpXpXpXpX.X1X1X|.'.`.(./.Z.M.,.X.I [ q.q.d.$X~.^.y.pXpXpXpXpXpXpXpXpXpXpXpX",
"pXpXpXpXpXpXpXpXpXpXpXpXpXpXX.^.1X|.'.'.`./.Z.B.M.v.k.%.a.u.i.i.s.u.@.0.5.5.3.3.4.J w.pXpXpXpXpX",
"pXpXpXpXpXpXpXpXpXpX@. . .g.-._.'.`.`._././.Z.B.M.N.k.p.a.s.f.;X-X-X1.n.#X9.0.9.w.H G ( pXpXpXpX",
"pXpXpXpXpXpXpX[.@ . w A  . .b.L././././.A.A.A.M.N.N.k.&X:X=X>XwXwXwX{.l.XXXX].N     . Z pXpXpXpX",
"pXpXpXpXpXpXpXj.c.c...+.:.N w A +.+.+.,.v.m.B.N.v.x.x.0X7XeXeX7X&XiXiX@.Y.>Xt.Z .   @ & pXpXpXpX",
"pXpXpXpXpXpXpX[.XXeXqX*X{.T.H.-.:.J.| n ^ ^ ' _ X.*.j.+.:.J.r.>.J.oX*X,.l.<.{ y @ . . Z pXpXpXpX",
"pXpXpXpXpXpXpX+.R.qXqX6X=X=X*X%XXXK.n.,.O._ +.J.} / / I P ; 1 4 = = - #         . . . ( pXpXpXpX",
"pXpXpXpXpXpX*.: r r.J.=X=X=X%X%XXXW.{.[.].I.V.z.=.E U ' ' =       .           . . . @ pXpXpXpXpX",
"pXpXpXpXL.w ; * - @ & <.{.&X%X}.%X}.R.].T.Y.).(.V.Z.M.j.-.; @                   # = & pXpXpXpXpX",
"pXpXpXpXE.+.3XyX8X(.O.M % w ( <.J.{.R.T.Y.Y.I.I.L.V.V.V.z.S                   # pXpXpXpXpXpXpXpX",
"pXpXpXpX{.}.T.].OX3X9XuX5X^.O.7 % * A O.c.U.I.L.L.V.V.b.( % @                 > pXpXpXpXpXpXpXpX",
"pXpXpXpXpXpXJ.R.W.W.{.).OX3X9XyX5X(.@.M % % B _ =.z.b.z.W :                   > pXpXpXpXpXpXpXpX",
"pXpXpXpXpXpXpXpXk :.J.E.T.T.Y.P.(.2X5XuX5X(.-.B % > 7 M M @                   = pXpXpXpXpXpXpXpX",
"pXpXpXpXpXpXpXpXpXpXC =.O.1.U.Y.U.U.L.Z. X2X5XuXA.Y B % @ @               . @ pXpXpXpXpXpXpXpXpX",
"pXpXpXpXpXpXpXpXpXpX5 %.P pXpX9 ) 1.U.H.n.b.z.j.k.z.%             .     . % + pXpXpXpXpXpXpXpXpX",
"pXpXpXpXpXpXpXpXpXpXo X.S pXpXpXpXpXo +.:.H.H.c.c.z.: @ @   @ @ @ . . > 7 P pXpXpXpXpXpXpXpXpXpX",
"pXpXpXpXpXpXpXpXpXpXp %.C pXpXpXpX9 o ' y +.I _ o.%.% . O 7 @ @ @   % o t B pXpXpXpXpXpXpXpXpXpX",
"pXpXpXpXpXpXpXpXpXpXpX~ M pXpXpXpXpX9 %.A =.y pXo 9 o pXO 5 R L % & pXpXw S pXpXpXpXpXpXpXpXpXpX",
"pXpXpXpXpXpXpXpXpXpXpXR * pXpXpXpXpXpX%.K *.t pXpX+ pXpXpXpXT Q @ X pXpX&.^ pXpXpXpXpXpXpXpXpXpX",
"pXpXpXpXpXpXpXpXpXpXpXE & pXpXpXpXpXpXE K *.y pX5 pXpXpXpXpXL Q @ + pXpXpXpXpXpXpXpXpXpXpXpXpXpX",
"pXpXpXpXpXpXpXpXpXpXpX! ; pXpXpXpXpXpXE I ~ I pXu pXpXpXo pXD R @ 1 pXpXpXpXpXpXpXpXpXpXpXpXpXpX",
"pXpXpXpXpXpXpXpXpXpXpX! t pXpXpXpXpXpXE U E _ pXpXpXpXpXpXpXC T = pXpXpXpXpXpXpXpXpXpXpXpXpXpXpX",
"pXpXpXpXpXpXpXpXpXpXpX&.K pXpXpXpXpXpXU A E _ pXpXpXpXpXpXpX8 T L pXpXpXpXpXpXpXpXpXpXpXpXpXpXpX",
"pXpXpXpXpXpXpXpXpXpXpXpXpXpXpXpXpXpXpXB q L I pXpXpXpXpXpXpX7 T W pXpXpXpXpXpXpXpXpXpXpXpXpXpXpX",
"pXpXpXpXpXpXpXpXpXpXpXpXpXpXpXpXpXpXE y q 6 = pXpXpXpXpXpXpX7 T h.pXpXpXpXpXpXpXpXpXpXpXpXpXpXpX",
"pXpXpXpXpXpXpXpXpXpXpXpXpXpXpXpXpXm.%.C t q 7 pXpXpXpXpXpXpX7 Y h.pXpXpXpXpXpXpXpXpXpXpXpXpXpXpX",
"pXpXpXpXpXpXpXpXpXpXpXpXpXpXpXpXpXpXpXpX:.X.&.pXpXpXpXpXpXpXw Y *.pXpXpXpXpXpXpXpXpXpXpXpXpXpXpX",
"pXpXpXpXpXpXpXpXpXpXpXpXpXpXpXpXpXpXpXpXpXpXpXpXpXpXpXpXpXpXC L L pXpXpXpXpXpXpXpXpXpXpXpXpXpXpX",
"pXpXpXpXpXpXpXpXpXpXpXpXpXpXpXpXpXpXpXpXpXpXpXpXpXpXpXpXpXpX8 T *.pXpXpXpXpXpXpXpXpXpXpXpXpXpXpX",
"pXpXpXpXpXpXpXpXpXpXpXpXpXpXpXpXpXpXpXpXpXpXpXpXpXpXpXpXpXpXpX,.X.pXpXpXpXpXpXpXpXpXpXpXpXpXpXpX",
"pXpXpXpXpXpXpXpXpXpXpXpXpXpXpXpXpXpXpXpXpXpXpXpXpXpXpXpXpXpXpX;.x.pXpXpXpXpXpXpXpXpXpXpXpXpXpXpX",
"pXpXpXpXpXpXpXpXpXpXpXpXpXpXpXpXpXpXpXpXpXpXpXpXpXpXpXpXpXpXpXpXpXpXpXpXpXpXpXpXpXpXpXpXpXpXpXpX"
};
