/* XPM */
static char *_651911172740[] = {
/* columns rows colors chars-per-pixel */
"48 48 4 1 ",
"  c #313131",
". c #323232",
"X c gray20",
"o c None",
/* pixels */
"oooooooooooooooooooooooooooooooooooooooooooooooo",
"oooooooooooooooooooooooooooooooooooooooooooooooo",
"ooooooooooooooooooooo..oo..ooooooooooooooooooooo",
"oooooooooooooooooooo........oooooooooooooooooooo",
"ooooooooooooooooooo..o...ooX.ooooooooooooooooooo",
"oooooooooooooooooooo....oo..oooooooooooooooooooo",
"ooooooooooooooooooooo..oo..ooooooooooooooooooooo",
"oooooooooooooooooooo..oo....oooooooooooooooooooo",
"ooooooooooooooooooo..oo..o...ooooooooooooooooooo",
"oooooooooooooooooo..oo..X.o.X.oooooooooooooooooo",
"ooooooooooooooooo..oo..oo..o..Xooooooooooooooooo",
"oooooooooooooooo..oo........o...oooooooooooooooo",
"ooooooooooooooo..oo..oooooo..o.XXooooooooooooooo",
"oooooooooooooo..oo..oooooooo..o.X.oooooooooooooo",
"ooooooooooooo..oo..............o...ooooooooooooo",
"oooooooooooo..oo..oooooooooooo..o.XXoooooooooooo",
"ooooooooooo..oo..oooooooooooooo..o.X.ooooooooooo",
"oooooooooo.Xoo.X..................o..Xoooooooooo",
"ooooooooo..oo..oooooooooooooooooo..o...ooooooooo",
"oooooooo.Xoo..oooooooooooooooooooo..o.X.oooooooo",
"oooooooX.oo..........................o..Xooooooo",
"oooooo..oo..oooooooooooooooooooooooo..o...oooooo",
"ooooo.Xoo..oooooooooooooooooooooooooo..o.X.ooooo",
"ooooX.oo.X..............................o..Xoooo",
"ooo..oo..ooooooooooooooooooooooo.oooooo..o...ooo",
"oo.Xoo..ooo..........oooooo..........ooo..o.X.oo",
"o..oo....X....oooo....X.......oooo....X..X.o...o",
"..oo...oo.o..........o.oo.o..........o.oo...o...",
"o...X..oo...oooooooo...oo...oooooooo...oo......o",
"oo.XX.......o......o........o......o.......XX.oo",
"ooo.oo.oooo........o.oooooo.o........oooo.oo.ooo",
"ooo.oo.ooo...X.XX.Xo.oooooo.o.X.X.X...ooo.ooXooo",
"ooo.X.......o......o........o......o.......XXooo",
"ooo.oo.oooo........o.oooooo.o........oooo.oo.ooo",
"oooXoo.ooo...X....Xo.oooooo.o.X...X...ooo.ooXooo",
"ooo................o........o................ooo",
"oooXooXoooo..X....Xo.oooooo.o.X...X..oooo.oo.ooo",
"oooXoo.oo....X....Xo...oo...o.X...X....oo.ooXooo",
"ooo.X....X..oooooooo.X......oooooooo.XX....X.ooo",
"ooo.oo.oo..............oo..............oo.oo.ooo",
"oooXoo.ooX.X.X.XX.XX.X.oo..XX.XXX.XX.XXoo.ooXooo",
"ooo.X......................................X.ooo",
"ooo.oo.oooooooooooooooooooooooooooooooooo.oo.ooo",
"oooXoo.oooooooooooooooooooooooooooooooooo.ooXooo",
"ooo.X......................................X.ooo",
"ooo.oo.oooooooooooooooooooooooooooooooooo.oo.ooo",
"oooXoo....................................oo.ooo",
"ooooX.XX.XXX.X.XX.XX.XX.XX.XX.XXX.XX.XX.XX..oooo"
};
